<svg width="24" height="26" viewBox="0 0 24 26" fill="none" xmlns="http://www.w3.org/2000/svg">
<path d="M21.1561 9.83545C21.1561 9.83545 20.4774 18.2542 20.0836 21.8004C19.8961 23.4942 18.8499 24.4867 17.1361 24.5179C13.8749 24.5767 10.6099 24.5804 7.34986 24.5117C5.70111 24.4779 4.67236 23.4729 4.48861 21.8092C4.09236 18.2317 3.41736 9.83545 3.41736 9.83545" stroke="#5F5F75" stroke-width="1.5" stroke-linecap="round" stroke-linejoin="round"/>
<path d="M22.8852 5.7998H1.68774" stroke="#5F5F75" stroke-width="1.5" stroke-linecap="round" stroke-linejoin="round"/>
<path d="M18.8007 5.79973C17.8195 5.79973 16.9745 5.10598 16.782 4.14473L16.4782 2.62473C16.2907 1.92348 15.6557 1.43848 14.932 1.43848H9.64072C8.91697 1.43848 8.28197 1.92348 8.09447 2.62473L7.79072 4.14473C7.59822 5.10598 6.75322 5.79973 5.77197 5.79973" stroke="#5F5F75" stroke-width="1.5" stroke-linecap="round" stroke-linejoin="round"/>
</svg>
